<svg width="25" height="26" viewBox="0 0 25 26" fill="none" xmlns="http://www.w3.org/2000/svg">
<path fill-rule="evenodd" clip-rule="evenodd" d="M4.70659 5.16797C5.13316 4.76273 5.80747 4.78002 6.21271 5.20659L12.1875 11.4958L18.1623 5.20659C18.5675 4.78002 19.2418 4.76273 19.6684 5.16797C20.095 5.57321 20.1123 6.24753 19.707 6.6741L13.6569 13.0426L19.707 19.4111C20.1123 19.8377 20.095 20.512 19.6684 20.9173C19.2418 21.3225 18.5675 21.3052 18.1623 20.8786L12.1875 14.5894L6.21271 20.8786C5.80747 21.3052 5.13316 21.3225 4.70659 20.9173C4.28002 20.512 4.26273 19.8377 4.66797 19.4111L10.7181 13.0426L4.66797 6.6741C4.26273 6.24753 4.28002 5.57321 4.70659 5.16797Z" fill="#9098A2"/>
</svg>
