<svg width="25" height="26" viewBox="0 0 25 26" fill="none" xmlns="http://www.w3.org/2000/svg">
<g id="Edit">
<path id="Vector" d="M23.5452 7.51796L18.6067 2.5797C18.3337 2.30677 17.8918 2.30677 17.6191 2.5797L14.6409 5.55797C14.6403 5.55825 14.6397 5.55853 14.6395 5.55909C14.6392 5.55964 14.6386 5.55992 14.6383 5.56048L3.33065 16.8682C3.23343 16.9654 3.16694 17.0889 3.13985 17.2235L1.88887 23.4133C1.84249 23.6427 1.91401 23.8798 2.07967 24.0455C2.21209 24.1776 2.39004 24.25 2.57358 24.25C2.61968 24.25 2.66605 24.2455 2.71186 24.236L8.9011 22.9848C9.03576 22.9577 9.15951 22.8915 9.25645 22.794L23.5449 8.5055C23.6759 8.37448 23.7494 8.19709 23.7494 8.01159C23.7494 7.8261 23.6762 7.64898 23.5452 7.51796ZM10.7382 19.3372L6.78746 15.3864L15.1336 7.04054L19.0844 10.9915L10.7382 19.3372ZM8.41809 21.6575L3.46642 22.6585L4.46709 17.7065L5.79992 16.3737L9.75064 20.325L8.41809 21.6575ZM20.0719 10.0037L16.1212 6.05299L18.113 4.06115L22.064 8.01187L20.0719 10.0037Z" fill="#9098A2"/>
</g>
</svg>
