<svg width="25" height="26" viewBox="0 0 25 26" fill="none" xmlns="http://www.w3.org/2000/svg">
<g id="hour-glass">
<g id="Group 21">
<g id="Group">
<g id="Group_2">
<path id="Vector" fill-rule="evenodd" clip-rule="evenodd" d="M18.2724 19.2019C20.1296 19.2019 21.6346 17.6955 21.6346 15.8372V5.73974C21.6346 3.88309 20.1293 2.375 18.2724 2.375H11.5353C9.6781 2.375 8.17308 3.88144 8.17308 5.73974V7.42308H6.49038C4.63552 7.42308 3.125 8.92952 3.125 10.7878V20.8853C3.125 22.7419 4.63031 24.25 6.48719 24.25H13.2243C15.0815 24.25 16.5865 22.7418 16.5865 20.8814V19.2019H18.2724ZM4.80769 11.2091C4.80769 10.0475 5.74845 9.10577 6.91189 9.10577H12.7996C13.9618 9.10577 14.9038 10.047 14.9038 11.2091V20.4639C14.9038 21.6256 13.9631 22.5673 12.7996 22.5673H6.91189C5.74977 22.5673 4.80769 21.6261 4.80769 20.4639V11.2091ZM9.85577 6.16036C9.85577 4.99909 10.7965 4.05769 11.96 4.05769H17.8477C19.0098 4.05769 19.9519 4.99893 19.9519 6.16106V15.4159C19.9519 16.5775 19.0142 17.5192 17.8487 17.5192H16.5857V10.785C16.5857 8.92824 15.0754 7.42308 13.2207 7.42308H9.85577V6.16036Z" fill="#9098A2"/>
</g>
</g>
</g>
</g>
</svg>
